<?xml version='1.0' encoding='utf-8'?>
<svg xmlns="http://www.w3.org/2000/svg" width="170.04mm" height="160.54mm" clip-rule="evenodd" fill-rule="evenodd" image-rendering="optimizeQuality" shape-rendering="geometricPrecision" text-rendering="geometricPrecision" version="1.0" viewBox="0 0 11062 10444">
 <defs>
  <style type="text/css">
   
    .fil1 {fill:none}
    .fil0 {fill:#00A0E3}
   
  </style>
 </defs>
    <path class="fil0" d="m4488 9071c146-1014-108-1219-796-1919-760-775-1266-1553-1236-2687 49-1839 3191-2883 4567-1877 1213 886 1494 2795 380 3911-588 588-1149 594-1336 1610-79 430-26 788 1 1215-140-500-185-1058-27-1560 190-603 477-753 934-1107 1228-948 1199-2671 119-3686-777-730-2057-580-2969-186-1296 560-1731 1416-1315 2758 368 1187 1282 1578 1664 2390 210 445 150 698 14 1138z"/>
   <path class="fil1" d="m4488 9071c579-1857-1928-1852-1928-4606 0-1439 2346-2488 3888-2029 1391 415 2481 3067 387 4414-892 574-946 1506-767 2474"/>
    <path class="fil0" d="m4520 8944c-4 4-200 159-248 220 288 109 1211 29 1544 33-232 169-378 201-663 248-225 37-944 85-1053-209-85-227 295-279 420-292zm-255 228c-3 5-4 9-4 11 3-2 4-6 4-11z"/>
   <path class="fil1" d="m4520 8944c-1033 389 527 544 1296 253"/>
    <path class="fil0" d="m4267 9355c-148 98-353 210-43 252 323 43 896-146 1212-220-254 236-460 384-811 460-229 49-787-20-730-333 33-180 228-187 372-159z"/>
   <path class="fil1" d="m4267 9355c-663 71-153 803 1169 32"/>
    <path class="fil0" d="m4109 9766c-36 175-110 198 241 150 419-59 985-225 1402-150-219 133-452 198-697 268-931 266-1364-97-946-268z"/>
   <path class="fil1" d="m4109 9766c-539 576 1509 0 1643 0"/>
    <path class="fil0" d="m4204 10114c-4 2-186 86-170 114 108 9 34 48 289 21 436-47 1302-406 1615-427l194 7c-373 208-1026 544-1434 595-1026 130-884-430-494-310z"/>
   <path class="fil1" d="m4204 10114c-492 0-304 641 1580-192 80-36 248-64 348-93"/>
    <path class="fil0" d="m6416 7080c-283 961-419 851-268 1987 22 165 134 583 50 703-107 153-660 192-825 217l263-153c1 0 416-124 407-167-2-2-1-2-2-5-313-935-301-1812 375-2582z"/>
   <path class="fil1" d="m6416 7080c-611 1066-503 1470-282 2557 43 208-398 176-761 350"/>
    <path class="fil0" d="m5057 9071c-132-615-185-1204-338-1845-187-786-341-1574-698-2308-1-3-38-19-39-19 41-30 63-27 94 12 731 890 1173 3037 981 4160z"/>
   <path class="fil1" d="m5057 9071c0-1194-398-3180-1003-4146-23-36-32-29-72-26"/>
    <path class="fil0" d="m5247 9039c-213-369-131-1054-93-1484 69-782 291-1927 669-2614 111-202 89-161 245-295-230 520-334 963-438 1514-163 854-407 2031-383 2879z"/>
   <path class="fil1" d="m5247 9039c-241-494 302-3874 821-4393"/>
    <path class="fil0" d="m4362 5405c94-257 280-675 625-646 323 27 321 446 684 645l50 32c-288 182-540-307-756-409-129-60-494 295-603 378z"/>
   <path class="fil1" d="m4362 5405c828-1204 792 80 1359 31"/>
    <path class="fil0" d="m4267 5405c-170 501-167 407 524 308 272-39 601-141 866-119-259 220-1377 652-1622 285-132-196 111-380 232-474z"/>
   <path class="fil1" d="m4267 5405c-813 986 1363 189 1390 189"/>
    <path class="fil0" d="m3824 7996c-518 83-543 154-1002 421-289 168-792 445-1084 559 225-284 493-495 793-695 220-147 1071-567 1293-285z"/>
   <path class="fil1" d="m3824 7996c-428-225-1726 707-2086 980"/>
    <path class="fil0" d="m948 7491c-159 71 33-368 1060-433 223-14 155-19 331 22-288 217-705 291-1054 342-67 10-334 15-337 69z"/>
   <path class="fil1" d="m948 7491c-201-102 1232-373 1391-411"/>
    <path class="fil0" d="m0 4678c279-143 313-142 649-98 384 50 752 246 1058 477-274-6-163 11-437-55-475-115-775-241-1270-324z"/>
   <path class="fil1" d="m0 4678c480-145 1223 224 1707 379"/>
    <path class="fil0" d="m917 1011c641 127 1129 340 1353 1010l69 318-204-246c-509-645-626-595-1218-1082z"/>
   <path class="fil1" d="m917 1011c777 362 1048 493 1422 1328"/>
    <path class="fil0" d="m3856 0c329 392 603 801 600 1327-164-184-96-92-236-312-235-368-347-560-364-1015z"/>
   <path class="fil1" d="m3856 0c3 128 476 936 600 1327"/>
    <path class="fil0" d="m6226 1422c-96-195 490-607 588-667 254-155 599-297 898-313-284 277-663 487-1010 674-249 135-290 189-476 306z"/>
   <path class="fil1" d="m6226 1422c26-257 1231-885 1486-980"/>
    <path class="fil0" d="m8186 2370c393-368 908-701 1474-656l264 56-248 88c-503 162-980 411-1490 512z"/>
   <path class="fil1" d="m8186 2370c616-308 1017-591 1738-600"/>
    <path class="fil0" d="m8850 4235c370-84 452-71 838-26 364 43 861 187 1177 380l197 152c-629-90-1599-321-2212-506z"/>
   <path class="fil1" d="m8850 4235c574-14 1696 259 2212 506"/>
    <path class="fil0" d="m8881 6574c538 41 1013 206 1391 601-506-71-1015-244-1391-601z"/>
   <path class="fil1" d="m8881 6574c492 229 884 326 1391 601"/>
    <path class="fil0" d="m7427 7585c411 417 665 964 696 1549-355-438-610-991-696-1549z"/>
   <path class="fil1" d="m7427 7585c256 504 500 1020 696 1549"/>
</svg>